<svg xmlns="http://www.w3.org/2000/svg" version="1.1" xmlns:xlink="http://www.w3.org/1999/xlink" xmlns:svgjs="http://svgjs.dev/svgjs" width="1500" height="1500" viewBox="0 0 1500 1500"><rect width="1500" height="1500" fill="#ffffff"></rect><g transform="matrix(0.6666666666666666,0,0,0.6666666666666666,249.3939393939395,663.377791586329)"><svg viewBox="0 0 396 68" data-background-color="#ffffff" preserveAspectRatio="xMidYMid meet" height="257" width="1500" xmlns="http://www.w3.org/2000/svg" xmlns:xlink="http://www.w3.org/1999/xlink"><g id="tight-bounds" transform="matrix(1,0,0,1,0.23999999999995225,0.37924224978388565)"><svg viewBox="0 0 395.52 67.2415155004322" height="67.2415155004322" width="395.52"><g><svg viewBox="0 0 487.94337656234626 82.95421753248947" height="67.2415155004322" width="395.52"><g transform="matrix(1,0,0,1,92.42337656234632,21.422613226000113)"><svg viewBox="0 0 395.5199999999999 40.10899108048924" height="40.10899108048924" width="395.5199999999999"><g id="textblocktransform"><svg viewBox="0 0 395.5199999999999 40.10899108048924" height="40.10899108048924" width="395.5199999999999" id="textblock"><g><svg viewBox="0 0 395.5199999999999 40.10899108048924" height="40.10899108048924" width="395.5199999999999"><g transform="matrix(1,0,0,1,0,0)"><svg width="395.5199999999999" viewBox="2.3 -35.25 351.02625 35.6" height="40.10899108048924" data-palette-color="#000000"><path d="M2.3-6.45L5.9-7.65Q6.2-6.15 7-5.18 7.8-4.2 9.08-3.7 10.35-3.2 12.05-3.2L12.05-3.2Q14.7-3.2 16.07-4.23 17.45-5.25 17.45-6.8L17.45-6.8Q17.45-8.1 16.63-8.9 15.8-9.7 14.45-10.23 13.1-10.75 11.45-11.15L11.45-11.15Q10.15-11.45 8.65-11.88 7.15-12.3 5.8-13.05 4.45-13.8 3.6-15 2.75-16.2 2.75-18.15L2.75-18.15Q2.75-20.3 3.93-21.93 5.1-23.55 7.18-24.45 9.25-25.35 11.95-25.35L11.95-25.35Q15.05-25.35 17.48-24 19.9-22.65 20.85-19.8L20.85-19.8 17.35-18.6Q17-19.9 16.07-20.6 15.15-21.3 14.03-21.55 12.9-21.8 11.8-21.8L11.8-21.8Q9.55-21.8 8.18-20.93 6.8-20.05 6.8-18.3L6.8-18.3Q6.8-17.35 7.25-16.73 7.7-16.1 8.5-15.7 9.3-15.3 10.4-15.03 11.5-14.75 12.8-14.4L12.8-14.4Q14.25-14.05 15.75-13.53 17.25-13 18.55-12.18 19.85-11.35 20.68-10.08 21.5-8.8 21.5-6.9L21.5-6.9Q21.5-4.7 20.3-3.08 19.1-1.45 16.98-0.55 14.85 0.35 12.05 0.35L12.05 0.35Q8.2 0.35 5.68-1.38 3.15-3.1 2.3-6.45L2.3-6.45ZM38.1 0.35L38.1 0.35Q34.6 0.35 31.87-1.35 29.15-3.05 27.6-6 26.05-8.95 26.05-12.75L26.05-12.75Q26.05-16.4 27.6-19.25 29.15-22.1 31.85-23.73 34.55-25.35 38-25.35L38-25.35Q41.4-25.35 44.07-23.85 46.75-22.35 48.25-19.7 49.75-17.05 49.65-13.65L49.65-13.65Q49.65-13.1 49.6-12.5 49.55-11.9 49.5-11.2L49.5-11.2 30.15-11.2Q30.25-8.85 31.3-7.05 32.35-5.25 34.07-4.23 35.8-3.2 38-3.2L38-3.2Q40.9-3.2 42.92-4.3 44.95-5.4 45.85-7.45L45.85-7.45 49.1-6.15Q47.6-3 44.75-1.33 41.9 0.35 38.1 0.35ZM30.2-14.45L45.55-14.45Q45.6-16.6 44.62-18.25 43.65-19.9 41.9-20.85 40.15-21.8 37.85-21.8L37.85-21.8Q35.85-21.8 34.2-20.85 32.55-19.9 31.47-18.23 30.4-16.55 30.2-14.45L30.2-14.45ZM55.8 0L55.8-25 59.25-25 59.5-21.4Q60.6-23.2 62.47-24.28 64.35-25.35 66.95-25.35L66.95-25.35Q69.6-25.35 71.77-24.08 73.95-22.8 75.15-20.3L75.15-20.3Q76.3-22.85 78.65-24.1 81-25.35 83.85-25.35L83.85-25.35Q86.65-25.35 88.8-24.13 90.95-22.9 92.15-20.48 93.35-18.05 93.35-14.4L93.35-14.4 93.35 0 89.59 0 89.59-13.95Q89.59-17.85 87.92-19.88 86.25-21.9 83.15-21.9L83.15-21.9Q80-21.9 78.15-19.73 76.3-17.55 76.3-13.3L76.3-13.3 76.3 0 72.55 0 72.55-13.95Q72.55-17.85 70.95-19.88 69.35-21.9 66.25-21.9L66.25-21.9Q63.1-21.9 61.32-19.73 59.55-17.55 59.55-13.3L59.55-13.3 59.55 0 55.8 0ZM119.69 0L116.24 0 115.94-4.5Q114.89-2.2 112.84-0.93 110.79 0.35 107.64 0.35L107.64 0.35Q104.94 0.35 103.04-0.5 101.14-1.35 100.12-2.93 99.09-4.5 99.09-6.65L99.09-6.65Q99.09-9.8 101.44-11.83 103.79-13.85 108.24-14.3L108.24-14.3 115.94-15.15 115.94-17.15Q115.94-19.25 114.39-20.53 112.84-21.8 110.19-21.8L110.19-21.8Q107.59-21.8 105.87-20.6 104.14-19.4 103.49-17.15L103.49-17.15 100.09-18.35Q101.09-21.65 103.77-23.5 106.44-25.35 110.29-25.35L110.29-25.35Q114.74-25.35 117.22-23.08 119.69-20.8 119.69-16.9L119.69-16.9 119.69 0ZM115.94-11.15L115.94-11.95 108.19-11.05Q105.69-10.75 104.39-9.68 103.09-8.6 103.09-6.85L103.09-6.85Q103.09-5.1 104.37-4.05 105.64-3 108.04-3L108.04-3Q110.79-3 112.54-4.1 114.29-5.2 115.12-7.08 115.94-8.95 115.94-11.15L115.94-11.15ZM126.99 0L126.99-25 130.44-25 130.64-21.45Q131.84-23.3 133.79-24.33 135.74-25.35 138.34-25.35L138.34-25.35Q141.19-25.35 143.34-24.13 145.49-22.9 146.69-20.48 147.89-18.05 147.89-14.4L147.89-14.4 147.89 0 144.14 0 144.14-13.95Q144.14-17.85 142.47-19.88 140.79-21.9 137.64-21.9L137.64-21.9Q134.39-21.9 132.57-19.75 130.74-17.6 130.74-13.4L130.74-13.4 130.74 0 126.99 0ZM152.99-25L156.74-25 156.74-32 160.49-32 160.49-25 167.14-25 167.14-21.5 160.49-21.5 160.49-8.05Q160.49-5.75 161.46-4.7 162.44-3.65 163.96-3.45 165.49-3.25 167.14-3.45L167.14-3.45 167.14-0.2Q165.19 0.25 163.31 0.05 161.44-0.15 159.96-1.07 158.49-2 157.61-3.7 156.74-5.4 156.74-8.05L156.74-8.05 156.74-21.5 152.99-21.5 152.99-25ZM173.49 0L173.49-25 177.19-25 177.19 0 173.49 0ZM175.39-30L175.39-30Q174.24-30 173.49-30.75 172.74-31.5 172.74-32.6L172.74-32.6Q172.74-33.75 173.49-34.5 174.24-35.25 175.39-35.25L175.39-35.25Q176.44-35.25 177.21-34.5 177.99-33.75 177.99-32.6L177.99-32.6Q177.99-31.5 177.21-30.75 176.44-30 175.39-30ZM196.28 0.35L196.28 0.35Q192.63 0.35 189.88-1.25 187.13-2.85 185.61-5.73 184.08-8.6 184.08-12.4L184.08-12.4Q184.08-16.25 185.61-19.18 187.13-22.1 189.88-23.73 192.63-25.35 196.28-25.35L196.28-25.35Q200.13-25.35 203.03-23.58 205.93-21.8 207.23-18.65L207.23-18.65 203.78-17.45Q203.03-19.45 201.06-20.63 199.08-21.8 196.48-21.8L196.48-21.8Q193.93-21.8 192.06-20.65 190.18-19.5 189.16-17.4 188.13-15.3 188.13-12.45L188.13-12.45Q188.13-8.25 190.38-5.73 192.63-3.2 196.38-3.2L196.38-3.2Q198.93-3.2 200.93-4.35 202.93-5.5 203.88-7.45L203.88-7.45 207.28-6.25Q205.93-3.15 203.03-1.4 200.13 0.35 196.28 0.35ZM225.88-6.45L229.48-7.65Q229.78-6.15 230.58-5.18 231.38-4.2 232.65-3.7 233.93-3.2 235.63-3.2L235.63-3.2Q238.28-3.2 239.65-4.23 241.03-5.25 241.03-6.8L241.03-6.8Q241.03-8.1 240.2-8.9 239.38-9.7 238.03-10.23 236.68-10.75 235.03-11.15L235.03-11.15Q233.73-11.45 232.23-11.88 230.73-12.3 229.38-13.05 228.03-13.8 227.18-15 226.33-16.2 226.33-18.15L226.33-18.15Q226.33-20.3 227.5-21.93 228.68-23.55 230.75-24.45 232.83-25.35 235.53-25.35L235.53-25.35Q238.63-25.35 241.05-24 243.48-22.65 244.43-19.8L244.43-19.8 240.93-18.6Q240.58-19.9 239.65-20.6 238.73-21.3 237.6-21.55 236.48-21.8 235.38-21.8L235.38-21.8Q233.13-21.8 231.75-20.93 230.38-20.05 230.38-18.3L230.38-18.3Q230.38-17.35 230.83-16.73 231.28-16.1 232.08-15.7 232.88-15.3 233.98-15.03 235.08-14.75 236.38-14.4L236.38-14.4Q237.83-14.05 239.33-13.53 240.83-13 242.13-12.18 243.43-11.35 244.25-10.08 245.08-8.8 245.08-6.9L245.08-6.9Q245.08-4.7 243.88-3.08 242.68-1.45 240.55-0.55 238.43 0.35 235.63 0.35L235.63 0.35Q231.78 0.35 229.25-1.38 226.73-3.1 225.88-6.45L225.88-6.45ZM261.68 0.35L261.68 0.35Q258.18 0.35 255.45-1.35 252.73-3.05 251.18-6 249.63-8.95 249.63-12.75L249.63-12.75Q249.63-16.4 251.18-19.25 252.73-22.1 255.43-23.73 258.13-25.35 261.58-25.35L261.58-25.35Q264.98-25.35 267.65-23.85 270.33-22.35 271.83-19.7 273.33-17.05 273.23-13.65L273.23-13.65Q273.23-13.1 273.18-12.5 273.13-11.9 273.08-11.2L273.08-11.2 253.73-11.2Q253.83-8.85 254.88-7.05 255.93-5.25 257.65-4.23 259.38-3.2 261.58-3.2L261.58-3.2Q264.48-3.2 266.5-4.3 268.53-5.4 269.43-7.45L269.43-7.45 272.68-6.15Q271.18-3 268.33-1.33 265.48 0.35 261.68 0.35ZM253.78-14.45L269.13-14.45Q269.18-16.6 268.2-18.25 267.23-19.9 265.48-20.85 263.73-21.8 261.43-21.8L261.43-21.8Q259.43-21.8 257.78-20.85 256.13-19.9 255.05-18.23 253.98-16.55 253.78-14.45L253.78-14.45ZM279.37 0L279.37-25 282.82-25 283.02-21.45Q284.22-23.3 286.17-24.33 288.12-25.35 290.72-25.35L290.72-25.35Q293.57-25.35 295.72-24.13 297.87-22.9 299.07-20.48 300.27-18.05 300.27-14.4L300.27-14.4 300.27 0 296.52 0 296.52-13.95Q296.52-17.85 294.85-19.88 293.17-21.9 290.02-21.9L290.02-21.9Q286.77-21.9 284.95-19.75 283.12-17.6 283.12-13.4L283.12-13.4 283.12 0 279.37 0ZM305.97-6.45L309.57-7.65Q309.87-6.15 310.67-5.18 311.47-4.2 312.75-3.7 314.02-3.2 315.72-3.2L315.72-3.2Q318.37-3.2 319.75-4.23 321.12-5.25 321.12-6.8L321.12-6.8Q321.12-8.1 320.3-8.9 319.47-9.7 318.12-10.23 316.77-10.75 315.12-11.15L315.12-11.15Q313.82-11.45 312.32-11.88 310.82-12.3 309.47-13.05 308.12-13.8 307.27-15 306.42-16.2 306.42-18.15L306.42-18.15Q306.42-20.3 307.6-21.93 308.77-23.55 310.85-24.45 312.92-25.35 315.62-25.35L315.62-25.35Q318.72-25.35 321.15-24 323.57-22.65 324.52-19.8L324.52-19.8 321.02-18.6Q320.67-19.9 319.75-20.6 318.82-21.3 317.69-21.55 316.57-21.8 315.47-21.8L315.47-21.8Q313.22-21.8 311.85-20.93 310.47-20.05 310.47-18.3L310.47-18.3Q310.47-17.35 310.92-16.73 311.37-16.1 312.17-15.7 312.97-15.3 314.07-15.03 315.17-14.75 316.47-14.4L316.47-14.4Q317.92-14.05 319.42-13.53 320.92-13 322.22-12.18 323.52-11.35 324.35-10.08 325.17-8.8 325.17-6.9L325.17-6.9Q325.17-4.7 323.97-3.08 322.77-1.45 320.65-0.55 318.52 0.35 315.72 0.35L315.72 0.35Q311.87 0.35 309.35-1.38 306.82-3.1 305.97-6.45L305.97-6.45ZM341.77 0.35L341.77 0.35Q338.27 0.35 335.54-1.35 332.82-3.05 331.27-6 329.72-8.95 329.72-12.75L329.72-12.75Q329.72-16.4 331.27-19.25 332.82-22.1 335.52-23.73 338.22-25.35 341.67-25.35L341.67-25.35Q345.07-25.35 347.74-23.85 350.42-22.35 351.92-19.7 353.42-17.05 353.32-13.65L353.32-13.65Q353.32-13.1 353.27-12.5 353.22-11.9 353.17-11.2L353.17-11.2 333.82-11.2Q333.92-8.85 334.97-7.05 336.02-5.25 337.74-4.23 339.47-3.2 341.67-3.2L341.67-3.2Q344.57-3.2 346.59-4.3 348.62-5.4 349.52-7.45L349.52-7.45 352.77-6.15Q351.27-3 348.42-1.33 345.57 0.35 341.77 0.35ZM333.87-14.45L349.22-14.45Q349.27-16.6 348.29-18.25 347.32-19.9 345.57-20.85 343.82-21.8 341.52-21.8L341.52-21.8Q339.52-21.8 337.87-20.85 336.22-19.9 335.14-18.23 334.07-16.55 333.87-14.45L333.87-14.45Z" opacity="1" transform="matrix(1,0,0,1,0,0)" fill="#000000" class="wordmark-text-0" data-fill-palette-color="primary" id="text-0"></path></svg></g></svg></g></svg></g></svg></g><g><svg viewBox="0 0 82.95460638402874 82.95421753248947" height="82.95421753248947" width="82.95460638402874"><g><svg xmlns="http://www.w3.org/2000/svg" xmlns:xlink="http://www.w3.org/1999/xlink" version="1.0" x="0" y="0" viewBox="9.499624996485208 9.5 80.00037500351479 80" enable-background="new 0 0 100 100" xml:space="preserve" height="82.95421753248947" width="82.95460638402874" class="icon-icon-0" data-fill-palette-color="accent" id="icon-0"><path d="M46.375 45.75H52.625V62H46.375zM35.125 53.25H41.375V62H35.125zM57.625 37H63.875V62H57.625zM19.502 75.963C6.166 60.873 6.165 38.128 19.502 23.038L30.142 33.678C22.619 42.859 22.619 56.143 30.142 65.323zM75.963 79.498C60.873 92.834 38.128 92.834 23.038 79.498L33.677 68.858C42.858 76.38 56.142 76.38 65.322 68.858zM79.498 23.038C92.834 38.128 92.834 60.873 79.498 75.963L68.859 65.322C76.38 56.142 76.38 42.859 68.859 33.677zM23.038 19.502C38.127 6.166 60.873 6.166 75.963 19.502L65.322 30.142C56.142 22.62 42.858 22.62 33.677 30.142z" fill="#000000" data-fill-palette-color="accent"></path></svg></g></svg></g></svg></g><defs></defs></svg><rect width="395.52" height="67.2415155004322" fill="none" stroke="none" visibility="hidden"></rect></g></svg></g></svg>